/* XPM */
static char * east_xpm[] = {
"64 64 4 1",
" 	c #FF00FF",
".	c #FF0000",
"+	c #000000",
"@	c #FFFFFF",
"                                                                ",
" ....++++@@@@@@@@@@@@@@@@@@@@@@@@@@@@@@@@@@@@@@@@++++++++++++++ ",
" ..++++++@@@@@@@@@@@@@@@@@@@@@@@@@@@@@@@@@@@@@@@@++++++++++++++ ",
" .+.+++++@@@@@@@@@@@@@@@@@@@@@@@@@@@@@@@@@@@@@@@@++++++++++++++ ",
" .++.@@@@@@@@@@@@@@@@@@@@@@@@@@@@@@@@@@@@@@@@@@@@++++++++++++++ ",
" ++++.@@@@@@@@@@@@@@@@@@@@@@@@@@@@@@@@@@@@@@@@@@@++++++++++++++ ",
" ++++@.@@@@@@@@@@@@@@@@@@@@@@@@@@@@@@@@@@@@@@@@@@++++++++++++++ ",
" ++++@@@@@@@@@@@@@@@@@@@@@@@@@@@@@@@@@@@@@@@@@@@@++++++++++++++ ",
" ++++@@@@@@@@@@@@@@@@@@@@@@@@@@@@@@@@@@@@@@@@@@@@++++++++++++++ ",
" ++++@@@@@@@@@@@@@@@@@@@@@@@@@@@@@@@@@@@@@@@@@@@@++++++++++++++ ",
" ++++@@@@@@@@@@@@@@@@@@@@@@@@@@@@@@@@@@@@@@@@@@@@++++++++++++++ ",
" +++@@@@@@@@@@@@@@@@@@@@@@@@@@@@@@@@@@@@@@@@@@@@@++++++++++++++ ",
" +++@@@@@@@@@@@@+++++++++++++++++++++++++++++++++++++++++++++++ ",
" +++@@@@@@@@@@@@+++++++++++++++++++++++++++++++++++++++++++++++ ",
" +++@@@@@@@@@@@@+++++++++++++++++++++++++++++++++++++++++++++++ ",
" +++@@@@@@@@@@@@+++++++++++++++++++++++++++++++++++++++++++++++ ",
" +++@@@@@@@@@@@@+++++++++++++++++++++++++++++++++++++++++++++++ ",
" +++@@@@@@@@@@@@+++++++++++++++++++++++++++++++++++++++++++++++ ",
" +++@@@@@@@@@@@@+++++++++++++++++++++++++++++++++++++++++++++++ ",
" +++@@@@@@@@@@@@+++++++++++++++++++++++++++++++++++++++++++++++ ",
" +++@@@@@@@@@@@@+++++++++++++++++++++++++++++++++++++++++++++++ ",
" +++@@@@@@@@@@@@+++++++++++++++++++++++++++++++++++++++++++++++ ",
" +++@@@@@@@@@@@@@@@@@@@@+++++++++++@@@@@@@@@@@@@+++++++++++++++ ",
" +++@@@@@@@@@@@@@@@@@@@@@@@@@@@@@@@@@@@@@@@@@@@@+++++++++++++++ ",
" +++@@@@@@@@@@@@@@@@@@@@@@@@@@@@@@@@@@@@@@@@@@@@+++++++++++++++ ",
" +++@@@@@@@@@@@@@@@@@@@@@@@@@@@@@@@@@@@@@@@@@@@@+++++++++++++++ ",
" +++@@@@@@@@@@@@@@@@@@@@@@@@@@@@@@@@@@@@@@@@@@@@+++++++++++++++ ",
" +++@@@@@@@@@@@@@@@@@@@@@@@@@@@@@@@@@@@@@@@@@@@@+++++++++++++++ ",
" +++@@@@@@@@@@@@@@@@@@@@@@@@@@@@@@@@@@@@@@@@@@@@+++++++++++++++ ",
" +++@@@@@@@@@@@@@@@@@@@@@@@@@@@@@@@@@@@@@@@@@@@@+++++++++++++++ ",
" ++++@@@@@@@@@@@@@@@@@@@@@@@@@@@@@@@@@@@@@@@@@@@+++++++++++++++ ",
" ++++@@@@@@@@@@@@@@@@@@@@@@@@@@@@@@@@@@@@@@@@@@@+++++++++++++++ ",
" ++++@@@@@@@@@@@@@@@@@@@@@@@@@@@@@@@@@@@@@@@@@@@+++++++++++++++ ",
" +++++@@@@@@@@@@@@@@@@@@@@@@@@@@@@@@@@@@@@@@+++++++++++++++++++ ",
" +++++@@@@@@@@@@@++++++++++++++++++++++++++++++++++++++++++++++ ",
" +++++@@@@@@@@@@@++++++++++++++++++++++++++++++++++++++++++++++ ",
" +++++@@@@@@@@@@@++++++++++++++++++++++++++++++++++++++++++++++ ",
" +++++@@@@@@@@@@@@+++++++++++++++++++++++++++++++++++++++++++++ ",
" +++++@@@@@@@@@@@@+++++++++++++++++++++++++++++++++++++++++++++ ",
" +++++@@@@@@@@@@@@+++++++++++++++++++++++++++++++++++++++++++++ ",
" +++++@@@@@@@@@@@@+++++++++++++++++++++++++++++++++++++++++++++ ",
" +++++@@@@@@@@@@@@@++++++++++++++++++++++++++++++++++++++++++++ ",
" +++++@@@@@@@@@@@@@++++++++++++++++++++++++++++++++++++++++++++ ",
" +++++@@@@@@@@@@@@@++++++++++++++++++++++++++++++++++++++++++++ ",
" +++++@@@@@@@@@@@@@++++++++++++++++++++++++++++++++++++++++++++ ",
" +++++@@@@@@@@@@@@@@@@@@@@@@@@@@@@@@@@@@@@@@@@@++++++++++++++++ ",
" ++++++@@@@@@@@@@@@@@@@@@@@@@@@@@@@@@@@@@@@@@@@++++++++++++++++ ",
" ++++++@@@@@@@@@@@@@@@@@@@@@@@@@@@@@@@@@@@@@@@@++++++++++++++++ ",
" ++++++@@@@@@@@@@@@@@@@@@@@@@@@@@@@@@@@@@@@@@@@++++++++++++++++ ",
" ++++++@@@@@@@@@@@@@@@@@@@@@@@@@@@@@@@@@@@@@@@@++++++++++++++++ ",
" +++++++@@@@@@@@@@@@@@@@@@@@@@@@@@@@@@@@@@@@@@@++++++++++++++++ ",
" +++++++@@@@@@@@@@@@@@@@@@@@@@@@@@@@@@@@@@@@@@@++++++++++++++++ ",
" +++++++@@@@@@@@@@@@@@@@@@@@@@@@@@@@@@@@@@@@@@@++++++++++++++++ ",
" +++++++@@@@@@@@@@@@@@@@@@@@@@@@@@@@@@@@@@@@@@@++++++++++++++++ ",
" +++++++++++@@@@@@@@@@@@@@@@@@@@@@@@@@@@@@@@@@@++++++++++++++++ ",
" +++++++++++@@@@@@@@@@@@@@@@@@@@@@@@@@@@@@@@@@@++++++++++++++++ ",
" ++++++++++++++++++++++++++++++++++++++++++++++++++++++++++++++ ",
" ++++++++++++++++++++++++++++++++++++++++++++++++++++++++++++++ ",
" ++++++++++++++++++++++++++++++++++++++++++++++++++++++++++++++ ",
" ++++++++++++++++++++++++++++++++++++++++++++++++++++++++++++++ ",
" ++++++++++++++++++++++++++++++++++++++++++++++++++++++++++++++ ",
" ++++++++++++++++++++++++++++++++++++++++++++++++++++++++++++++ ",
" ++++++++++++++++++++++++++++++++++++++++++++++++++++++++++++++ ",
"                                                                "};
