/* XPM */
static char * dng1_xpm[] = {
"114 73 17 1",
" 	c None",
".	c #070707",
"+	c #1B1916",
"@	c #2E2A25",
"#	c #454135",
"$	c #3C3129",
"%	c #555145",
"&	c #23201D",
"*	c #63605B",
"=	c #79756E",
"-	c #140E0E",
";	c #1A1512",
">	c #231F19",
",	c #312220",
"'	c #3F3628",
")	c #383836",
"!	c #56544F",
"...................................................................................................+@@@@#$#+@$$$%+",
"...................................................................................................+@@@@#$#+@$$$%+",
"+++++++++++++++++++++++++++++++++++++.+++++++++++++++++.++++++++++++++.+++++++++++++.+++++++++++++++@@@@#$#+@$$$%+",
"@@@@@@@@@@@@@@@@@@@@@@@@@@@@@@++++@@+.@@@@@@@++@@+@@@@@.+++@@@@@@@@@@@.@@@@++++@++@@.@@++@@@@@@++@@@@@@@#$#+@$$$%+",
"$$$$@@@@@@$$$$$$$$$$$$@@$@$$@@@@@@@@@.@@++@@@@@@@@@@@@@.@@@@@@@@@@++@@+@@@@@@@@@+@@@.$@@@@@@@@@@@@@@@@@@#$%+@@$$%+",
"$$$$$$$$$$$@$$@@@@$$$$$$$$$$@@@@@@@@@+#++@@@@@@@@@@@@+$.$@@@@++@@@@@+@+$@@@@@@@@@@@$+$@@@@@@@@@@@@@@@@@@#$%+@@$$%+",
"$$$$$$$$$$$$$$$$@@$$$$$$$$$$@@@@@@@@@+#@@@@@@@@@@@@++@$+$@@@@@@@@@@@@$+$@@@@@@@@@@@$+#@@@@@@@@@@@@@@@@@@#$%+@@$$%+",
"#####$@$$$$$$$$$$$$##################+#####$$$$$#######+##############+#############+################@@@#$%+@$$$%+",
"@@@@#$$$$$$$$$@$$$$#@@@@@@@@@@@@@@@@@+@@@@@@@@@@@@@@@@@+@@@@@@@@@@@@@@+@@@@@@@@@@@@@+@@@@@@@@@@@@@@@#@@@#$%+@$$$%+",
"$$&&#@@$$$$$@@$@$$$#&&$$$$$$$$$$$$$$$$$$$&&$$$$$$$&$$$$$$$$$$$$$$&&$$$$$$$$$$$$$$$$$$$$$&&$$$$$$$$&&#@@@#$%+@@$$%+",
"%##&#@@@$$$$$$@$$$$#&##%%###%%%%%%%%%%###&%%%%%%%%&%%##%%%%%%%%%%&%%%%%%##%%%######%%%%%%&%%###%%##&#@@@#$%+@@$$%+",
"@@#&#$@@$$$$$$$$@@@#&#*@@@*@@@@@@@@@@@@@@+@@@@@@@@+@@@@@@@@@@@@@@+@@@@@@@@@@@@@@@@@@@@@@@+@@@@@@@@#&*@@@#$%+@@$$%+",
"@@#&###%%%%%%%%%####&#*@@**@@@@@@@@@@@@@@+@@@@@@@@+@@@&@@@@@@@@@@+@@@@@@@@@@@@@@@@@@@@@@@+@@@@@@@@#&*####$%+@$$$%+",
"@@#&@@@@@@@@@@@@@@@@&%*@@*@@&&&&@@@@&@@@@+@@@@@@&&+@@@&@@@@@@@@@@+&&&&&@@&@@@&&@@@&&@@@@@+@@@@@@@@%&*@@@@$%+@$$$%+",
"&&%$$$$$$$$$$$$$$$$$$%=*&=&&&&&&&&&&&&&&&+&&&&&&&&+&&&&&&&&&&&&&&+&&&&&&&&&&&&&&&&&&&&&&&+&&&&&&&&%$**$$$$%+@$$$%+",
"++%%%%%###########%%%%=**=++++++++++++++++++++++++++++++++++++++++++++++++++++++++++++++++++++++++%%%*%%%%%+@$$$%+",
"-*&&@@*@@@@@@*@@@@*@&-=-=*------------------------------------------------------------------*----*-&***@@@*+@$$$%+",
"*-&&$$*******$$$$$*$&-=-=*;;;;;;;;>->;;;;;;-;;;;;;;->;;;;;;-;;;;;;>->;;;;;;-;;;;;;;->;;;;;;-*;;;--*&*$**$$*+@$$$%+",
"*-&&$**$$$*$$$$$$*$$&&*-=*>>;>>>>>>->>>>>>>->>>>>>>->>>>>>>-;>>>>>>->>>>>>>->>>>>>>->>>>>>>-**>>--***$$*$$*+@$$$%+",
">-&&$*$**$***$=$**$@&&*->>>>>>>,,,,->,,,,>-->,,,,,>-,,,,,>>->>>,,,,->,,,,>-->,,,,,>-,,,,,>>->*>>--&&*$$=$*=+@$$$%+",
"---**$$$**$$===**$$@@&------------------------------------------------------------------------**--&=*$$=**=+@@$$%+",
">***$$$$$$**=**$$$$@@&->>'-',,>>,,,,,'''-'',,,>>,,,,,'''-'',,,>>,,,,,'''-'',,,>>,,,,,'''-'','-'***&=@$$*=$=+@@$$%+",
"=*-*$$$$$$$$$$$$$$$@&&->,,-,,,,;,,,,,,,,-,,,,,,;,,,,,,,,-,,,,,,;,,,,,,,,-,,,,,,;,,,,,,,,-,,,,-,*>*==@$$*=$=+@@$$%+",
"=--*$$$$$$$$$$$$$$$$&&--,,-,,,,;>,,,,,,,-,,,,,,;>,,,,,,,-,,,,,,;>,,,,,,,-,,,,,,;>,,,,,,,-,,,,-,*--=*$$$*=$*+@@$$%+",
"*--*@$$$$$$$$$$$$$$$&&---->>--;;;>>>>;;;--------->>>>;;;--------->>>>;;;--------->>>'>>>>>;;>>-*--**$$$*$$*+@@$$%+",
"**&*@$$$$$$$$$$$$$$$@&-->>'',,,''''>>;-----------------------------------;--------;>>,'''',;''>*-**@$$$*$$%+@@$$%+",
">**&@$$$$$$$$$$$$$$$@&-->>,,,,,,,,,>;;-----------------------------------;--------;>>,,,,,,;,,>>**&@$$$$$$#+@@$$%+",
"--=&@@$$$$$$$$$$$$$$@&-->>,,>,,,,,,;;----------;-------------------------;---------;>,,,,,,-,,>>=-&@$$$$$$#+@@$$%+",
"--=&@@$$$$$$$$$$$$$$@&----->>>;;;>>;>;---;;;;;;;;;--------------------;;;;;;;;----;>;>>>>>-->---=-&@$$$$$$#+@$$$%+",
">-=&@@$$$$$$$$$$$$$@@&-->>,,''>,,''>>;-----;-------------------------;;-----------;>>,>>,,,,,,>>=-&@@$$$$$#+@$$$%+",
">-=&@@@@@@@@@@@@@@@@&&->>>,,,,>,,,,>>;-----;--))---------));;))-------------------;>>,,>,,,,,,>>=-&&@@@@@@#+@$$$%+",
"--*----&&&&&&&&&&&----->>-,,,,-,,,;;;;-------)--)-----)))**)*)--------------------;;>,,-,,,,,,->*-----&&&&&+@$$$%+",
"--*&#&&&&&##########&-----------;;;;;;------)===-)-***!)*)--*---)))**-------------;;;;;;--------*--&###%%%%+@$$$%+",
"--*&$#####$$$$$$$$$$&&-->,''''',,,,>>;-;;;-;)!--*)!!*=====*-))*--)*)))----;;;;;;;-;>>,,,'''-'',>*-&&$$$$$$%+@$$$%+",
">-*&$$$$$$$$$$$$$$$$&&-->>,,,,,,,,,>;-;;;-;;;!)--)))*))!);*;;*!-))*;;;)--;;;;;;;;;-;>,,,,,,-,,>>*-&&$$$$$$#+@$@$%+",
">-&&$$$$$$$$$$$$$$$$&&-->,,,,,,,,,;;->>;;->>>;-))>>>;);;);;;;;;))==*;;;--;;;;;;;>>;-;,,,,,,>,,,>--&&$$$$$$#+@$@$%+",
"--&@@@$$$$$$$$$$$$$$&&------->>;;;;->>;;;;>>>>;;>>>>>;;;->>>>;;->>>>>>;;->>>>;;>>>;;-;;;-->>------&&$$$$$$#+@@@$%+",
">-&&@@$$$$$$$$$$$$$$&&->>>-',,>>,,,,,''';'',,,>>,,,,,,,'-'',,,;-,,,,,''';'',,,>>,,,,,'''-'','->>>-&&$$$$$$#+@@@$%+",
">-&@@@$$$$$$$$$$$$$$@&->>>-,,,,;,,,,,,,,;,,,,,,;,,,,,,,,-,,,,,,;,,,,,,,,;,,,,,,;,,,,,,,,-,,,,->>>-&@$$$$$$#+@@@$%+",
"--&@@$$$$$$$$$$@$$$$@&->>>-,,,,;>,,,,,,,-,,,,,,;>,,,,,,,-,,,,,,;>,,,,,,,-,,,,,,;>,,,,,,,-,,,,->>>-&@$$$$$$#+@@@$%+",
"--&&$$$$$$$$$$$$$$$$@&----->--;;;>>>>>>>>>;;--;;;>>>>>>>>>;;--;;;>>>>>>>>>;;--;;;>>>>>>>>>;;>-----&@$$$$$$#+@$$$%+",
">-&&$$$$$$$$$$$$$$$$@&-->''',,,'''''-,'''',;,,,'''''-,'''',;,,,'''''-,'''',;,,,'''''-,'''',;'''>--&@$$$$$$#+@$$$%+",
">-&&$$$$$$$$$$$$@$$$&&-->,,,,,,,,,,,-,,,,,,;,,,,,,,,-,,,,,,;,,,,,,,,-,,,,,,;,,,,,,,,-,,,,,,;,,,>--&&$$$@$$#+@$$$%+",
">-&&$$$$$$$$$$$$@@$$&&-->,,,>,,,,,,,>,,,,,,->,,,,,,,>,,,,,,->,,,,,,,>,,,,,,->,,,,,,,>,,,,,,-,,,>--&&$$@@$$#+@$$$%+",
"--&&$$$$$$$$$$$$@@$$&&---->>>>;;;>>>>>>>>>-->>;;;>>>>>>>>>-->>;;;>>>>>>>>>-->>;;;>>>>>>>>>-->>----&&$$@@$$#+@$$$%+",
"--&&$@@@@@@@@@@$$$$$&&-->>,,''>,,''',,>>,,,,''>,,''',,>>,,,,''>,,''',,>>,,,,''>,,''',,>>,,,,,,>>--&&$$$$@@#+@$$$%+",
"-----&&@@@@@@@@@@@@@&&->,>,,,,>,,,,,,,,>,,,,,,>,,,,,,,,>,,,,,,>,,,,,,,,>,,,,,,>,,,,,,,,>,,,,,,>,>-&&@@@@@@#+@$$$%+",
"------&&&&&&&&&&&&----->,-,,,,-,,,,,,,,-,,,,,,-,,,,,,,,-,,,,,,-,,,,,,,,-,,,,,,-,,,,,,,,-,,,,,,-,>-----&&&&&+@$$$%+",
"---&################&------------>>>>;;;--------->>>>;;;--------->>>>;;;--------->>>''''-----------&####%%%+@$$$%+",
">-&&$$$$$$$$$$$$$$$$&-->>,''''',,,,>>;--------------------------------------------;>>,,,'''-'',>>--&$$$$$$%+@$$$%+",
">-&&$$$$$$$$$$$$$$$$&-->>>,,,,,,,,,>;;----------------------------------------;;--;>>,,,,,,-,,>>>--&$$$$$$%+@$$$%+",
">-&&$$$$$$$$$$$$$$$$&-->>,,,,,,,,,,;;;--;;;;----------;;;-------------------;;----;;>,,,,,,>,,,>>--&$$$$$$%+@@$$%+",
"--&@$$$$$$$$$$$$$$$$&&------->>>>>>;>;----;;;;;;----------------;-----------------;>;;---->>------&&$$$$$$%+@@$$%+",
">-&@@$$$$$$$$$$$$$$@&&-->>-',,>>,,,>>;-------;------------------;-----------------;>>'''-'','->>--&&@$$$$$%+@@$$%+",
">-&@@$$$$$$$$$$$$$@@@&-->>-,,,,;,,,>>;-------;---------------;;;;;;;-)))----------;>>,,,-,,,,->>--&@@@$$$$#+@@$$%+",
">-&@@$$$@$$$$$$$$$@@@&-->,-,,,,;>,,>;;----------------)))-----------))!!)---------;;>,,,-,,,,-,>--&@@@$$$$#+@@@$%+",
"--&@@$$$@$$$$$$$$$$$@&----->--;;;>>;;;---------------)!-*)----------!-!-!---------;;;>>>>>;;>-----&@$$$$$$#+@@@$%+",
"--&@@$$$@$$$$$$$$$$$@&->>''',,,''''>>;-;;;;;;-----!--!!--=--!------)!-!-!-;;;;;;;-;>>,'''',;'''>>-&@$$$$$$#+@@@$%+",
"--&&$$$@@$$$$$$$@$$$&&->>,,,,,,,,,,>;-;;;;;;;;--;;)!))!!=;);!)-;));))!-!);;;;;;;;;-;>,,,,,,;,,,>>-&&$$$@$$#+@@$$%+",
"--&&$$$@@$$$$$$$@$$$&&->>,,,>,,,,,,;->>;;>>>>;-;;>>));;!;;;))!-;>>>;))!-;;;;;;;;>>;-;,,,,,,-,,,>>-&&$$$@$$#+@@$$%+",
"--&&$$$@@$$$$$$$$$$$&&----->>>;>>>>->>;;>>>>>>;;>>>>>;;;;>>>>!;>>>>>>>;;;>>>>;;>>>;;->>>>>-->-----&&$$$$$$#+@@$$%+",
"--&&$$$$@$$$$$$$$$$$&&->>>,,''>,,'''''>>,,,,''>,,''',,>>,,,,''>,,''',,>>,,,,''>,,''',,>>,,,,,,>>>-&&$$$$$$#+@@$$%+",
">-&&$$$$@$$$$$$$$$$$&&->>>,,,,>,,,,,,,'>,,,,,,>,,,,,,,,>,,,,,,>,,,,,,,,>,,,,,,>,,,,,,,,>,,,,,,>>>-&&$$$$$$#+@@$$%+",
">-&&$$$$$$$$$$$$$$$$&&->>-,,,,-,,,,,,,,-,,,,,,-,,,,,,,,-,,,,,,-,,,,,,,,-,,,,,,-,,,,,,,,-,,,,,,->>-&&$$$$$$#+@@$$#+",
"--&&$$$$$$$$$$$$$$$$@&----&&&&&&&&&&&&&&&&&&&&&&&&&&&&&&&&&&&&&&&&&&&&&&&&&&&&&&&&&&&&&&&&&&&&----&@$$$$$$#+@$$$#+",
"&-&&$$$$$$$$$$$$$$$$@&-&@@$$$$@@@$@&@@@@@@@@$$$@@@@@@@$$$&$$$$@@@$@&@@@@@@@@$$@@@$@@@@&@@@@@$$@@&-&@$$$$$$#+@$$$#+",
"&-&@@$$$$$$$$$$$$$$$&&-&@$$$$$$$$$$&$$@@@$$$$$$$$$$$$$$$$&$$$$$$$$$&$$@@@$$$$$$$$$$$$$&@@$$$$$$@&-&&$$$$$$#+@$$$#+",
"&-&@@@$$$$$$$$$$$$$@&&-&$#####%%%%%+%%%%%%%######%%%%%###&####%%%%%+%%%%%%%###%%%%%%%%+%%%%####$&-&&@$$$$$#+@$$$#+",
"&-&&@$$$$$$$$$$$$$@@&&-&$+&&@@@@@@@+@@@@@@@@@@@@@@@@@@@@@+@@@@@@@@@+@@@@@@@@@@@@@@@@@@+@@@@@&&+$&-&&@@$$$$#+@$$$%+",
"&-&&@@$$$$$$$$$$$$@@&&-&#+&&@@&&@@@+@@@@@@&@@@@@@@&@@@@@@+@@@&@@@@@+@@@&@@@@@&@@@@@@@@+&@@@@&&+#&-&&@@$$$$#+@@$$%+",
"&-&&@@@$$$$$$$$$$$@@&&-&#+&&@@&&@@&+@@&&@@&@@@@&&&&&&@&@&+@@@&@&&&&+&&@&@@@@@&@&&&&&&&+&@@@@&&+#&-&&@@$$$$#+@@$$%+",
"&&-&&&@@@@$$@@@@$$&&&-&&#+&&&&&&&&&+&&&&&&&&&&&&&&&&&&&&&+&&&&&&&&&+&&&&&&&&&&&&&&&&&&+&&&&&&&+#&&-&&&$$@@#+@@$$%+",
"##%%%%%%%%%%%%%%%%%%%%%%#++++++++++++++++++++++++++++++++++++++++++++++++++++++++++++++++++++++#%%%%%%%%%%%%%%%%%+"};
