/* XPM */
static char * dng3_xpm[] = {
"79 77 13 1",
" 	c None",
".	c #1A1614",
"+	c #514643",
"@	c #3B3430",
"#	c #625956",
"$	c #241F1C",
"%	c #322A27",
"&	c #1A1E1C",
"*	c #342823",
"=	c #3C2F2C",
"-	c #231917",
";	c #454238",
">	c #140E0E",
".++++++@.+++###########++$$$$########++@.@@@@@@@@@@@@@@$.######+++++++@@@++++++",
".+@@@@@@.+@@@@@@@@@@@@@@@++++@@@@@@@@@@@.@@@@@@@@@@@@@@$.+@@@@@@@@@@@@@@@@@@@@+",
".+@@@@@@.+@@@@@@@@@@@@@@@@@@@@@@@@@@@@@%.%@@@@@@@@@@@@@+.@@@@@@@@@@@@@%%@@@@@@+",
".+@@@@@@.+@@@@@@@@@@@@@@@@@@@@%%%%%%%%%%.%%%%%%%%@@@@@@+.@@@@@@@@%%%%%%%@@@@@@+",
".+@@@@@@.++++++++++++%%%%%%%%%++++++++++.%++++++++++++++.@%%%%%%%%%%%%%%@@@@@@+",
"+@@@@@@@&&&&&&&&&&&&&&&&&&&&&&&&&&&&&&&&&&&&&&&&&&&&&&&&&&&&&&&&&&&&&&&&@@@@@@@",
"+@@@@@@%&$$$************$$***$$*************$$$$&&&&$****$$$$&&&&$*****&%@@@@@@",
"#@@@@@@%&$**============**===**=============$=======****=$=======******&%@@@@@@",
"#@@@%@@%&$$--=*----**$--$--=*$--=*----**$---**----**-----**----**----*=&%@@%@@@",
"#@@@%%@%&=***==*==*********==***==*==***************===**********===**=&%@%%@@@",
"#@@@@%%%&=$--**$--$**-----**$$--**$--$**-----*---$**$-----*---$**$---*=&%%%@@@@",
"#@@@@@%%&*$$-*=-$$$**$$$$-*=-$$-*=-$$$**$$$$-*-$$$*=$$$$$-*-$$$*=$$$$==&%%@@@@@",
"#@@@@@%%&*$$-*=$$$$**$$$$-*=$$$-*=$$$$**$$$$=*-$$$*=$$$$$=*-$$$*=$$$$==&%%@@@@@",
"+@@@%%%%&*$*=*===********=*===*=*===*******==*=======***==*=======*****&%%%%@@@",
"+@@@@%%%&**;;==*;;;**;;*;;==*;;;==*;;;**;;*****;;;**$$$*****;;;**$$$***&%%%@@@@",
"+@@@@%%.&*$$$**$$$$**$$$$$**$$$$**$$$$**$$$$$*$$$$**$>$$$$*$$$$**$>$$$*&.%%@@@@",
"+@@@@@..&*$>>**$>>>*=$$>>>**$>>>**$>>>*=$$>>$*>>>>*;>>$$>$*>>>>*;>>$$;*&..@@@@@",
"+@@@@@..&*$>>**>>>>*=>>>>>**>>>>**>>>>*=>>>>$;>>>>*;>>>$>$;>>>>*;>>>$=*&..@@@@@",
"+@@@@@%.&****=**;;;*====**=**;**=**;;;*=====*;;;;**;;=**=*;;;;**;;=**=*&.%@@@@@",
"@@@@@%%.&**======*******============**************=************=*****=*&.%%@@@@",
"@@@@%%%.&*$>>**>>>>**>>>>>**>>>>**>>>>**>>>>**>>>>=*>>>$>**>>>>=*>>>$=*&.%%%@@@",
"........&*$>>**>>>>*=>>>>>**>>>>**>>>>*=>>>>*=>>>>=*>>>$>*=>>>>=*>>>$=*&.......",
".++++@@.&*$>>**>>>>*=>>>>>**>>>>**>>>>*=>>>>*=>>>>=*>>>$>*=>>>>=*>>>$=*&.@@++++",
".#@@@@@.&***====***==*;;*====**====***==*;;;*===;;=*****;*===;;=*****=*&.@@@@@#",
".#@@@@@.&**;;;*;;;******;;;*;;;;;*;;;*************=************=*****$*&.@@@@@#",
".#@@@@@.&*$>>;*>>>>**---->;*----;*>>>>**>>>>**>>>>=*>>>>>**>>>>=*>>>>$*&.@@@@@#",
".#@@@@%.&*$>>;=>>>>**->>>>;=>>>-;=>>>>*******;>>>>***>>>>*;>>>>**>>>>$*&.%@@@@#",
".#@@@@%%&*$>>*=>>>>;;>>>>>*=>>>>*=****;;*$>>*;>>>>*;******;>>>>*;>>>>;=&%%@@@@#",
".#@@@@%%&*****=**;;;*>>>>>*=>>>>*=**;;;*$$>>*;;;;*==>>>>>*;;;;*==;;***=&%%@@@@#",
".#@@@@%%&*=====******>>>>>==>>>>==>>>>**>>>>*;;***==>>>>>*;;***========&%%@@@@#",
".#@@@@@%&*$$>**>>>>**>>>>>**>>>>**>>>>**>>>>*;>>>>**>>>>>*;>>>>**>>>$*=&%@@@@@#",
".+@@@@@@&*$**=**;;;*====**=**;;;*====**=**;;;*=====*;;;;**;;=***;;=*$*=&@@@@@@+",
".+@@@@%%&*$======*******======*******======**************=*****=****$;*&%%@@@@+",
".+@@@@%%&$=>>**>>>>**>>>>>**>>>>**>>>>>**>$$$**>>>>**>>>>=*----=*>>>;;*&%%@@@@+",
".+@@@@%%&$$>>**>>>>*=>>>>>**>>>>*=>>>>>**>>$$*=>>>>*=>>>>=*>>>$=*>>>==*&%%@@@@+",
".@@@@%%.&**>>**>>>>*=>>>>>**>>>>*=>>>>>**>>>>*=>>>>*=>>>>=*>>>$=*>>>***&.%%@@@@",
".%%%%%..&***====***==*;;*====***==*;;*====***==*;;;*===;;=*****=*******&..%%%%%",
"........&**;;;*;;;******;;;*;;;******;;;*;;;*************=*****=*******&.......",
"+++++@@%&$*>>;*>>>>**>>>>>;*>>>>**>>>>>;*>>$>**$$>>**>>>>=*>>>>=*----**&%@@++++",
"#@@@@@@%&$*>>;=>>>>**>>>>>;=>>>>**>>>>>;=>>>>**>>>>*;>>>>**>>>>**>>>-**&%@@@@@@",
"#@@@@@@%&$*>>*=>>>>;;>>>>>*=>>>>;;>>>>>*=>>>>;;>>>>*;>>>>*;>>>>*;>>>-*=&%@@@@@@",
"#@@@@@@%&=****=**;;;*;;****=**;;;*;;****=**;;;*;;*=*;;;;*==;;**==;;***=&%@@@@@@",
"#@@@@@%%&=$====*******======*******======*******===*;;***===========-*=&%%@@@@@",
"#@@@@%%%&*$$>**>>>>**>>>$>**>>>>**>>>$>**>>>>**>>>>*;>>>>**>>>$**>>>$==&%%%@@@@",
"#@@@@%%%&*$>>;=>>>>*=>>>>>;=>>>>*=>>>>>;=>>>>*=>>>>**>>>>$;>>>$$;>>>$==&%%%@@@@",
"+@@@%%%%&*$;;;=>>>>;=>>>;;;=>>>>;=>>>;;;=>>>>;=>>>>;*>>>>*;>>>$*;>>>***&%%%%@@@",
"+@@@@%%%&**;;==*;;;**;;*;;==*;;;**;;*;;==*;;;**;;*****;;;**$$$***$$$***&%%%@@@@",
"+@@@@%%%&*$$$**$$$$**$$$$$**$$$$**$$$$$**$$$$**$$$$$*$$$$**$>$$**$>$$$*&%%%@@@@",
"+@@@@@%%&*$>>**$>>>*=$$>>>**$>>>*=$$>>>**$>>>*=$$>>$*>>>>*;>>$$*;>>$$;*&%%@@@@@",
"+@@@@@%%&*$>>**>>>>*=>>>>>**>>>>*=>>>>>**>>>>*=>>>>$;>>>>*;>>>$*;>>>$=*&%%@@@@@",
"+@@@@@@%&****=**;;;*====**=**;;;*====**=**;;;*=====*;;;;**;>>>**;;=**=*&%@@@@@@",
"+@@@@@@%&**======*******======*******======**************=*>>>>=*****=*&%@@@@@@",
"+++++++%&*$>>**>>>>**>>>>>**>>>>**>>>>>**>>>>**$$>>**>>>>=*>>>$=*>>>$=*&%++++++",
"........&*$>>**>>>>*=>>>>>**>>>>*=>>>>>**>>>>*=>>>>*=>>>>=*>>>$=*>>>$=*&.......",
"+++++@@%&*$>>**>>>>*=>>>>>**>>>>*=>>>>>*******=>>>>*=>>>>=*>>>$=*>>>$=*&%@@++++",
"#@@@@@@%&***====***==*;;*====***==*;;*===>$$$==*;;;*===;;=*****=*****=*&%@@@@@@",
"#@@@@@@%&**;;;*;;;******;;;*;;;******;;;*>>>$************=*****=*****$*&%@@@@@@",
"#@@@@@@%&*$>>;*>>>>**>>>>>;*>>>>**>>>>>;*>>>$**>>>>**>>>>=*>>>>=*>>>>$*&%@@@@@@",
"#@@@@@%%&*$>>;=>>>>**>>>>>;=>>>>**>>>>>;=>>>>**>>>>*;>>>>**>>>>**>>>>$*&%%@@@@@",
"#@@@@@%%&*$>>*=>>>>;;>>>>>*=>>>>;;>>>>>*=>>>>;;>>>>*;>>>>*;>>>>*;>>>>;=&%%@@@@@",
"#@@@@@%%&*****=**;;;*;;****=**;;;*;;****=**;;;*;;*=*;;;;*==;;**==;;***=&%%@@@@@",
"+@@@%%%%&*=====*******======*******======*******===*;;***==============&%%%%@@@",
"+@@@@%%%&*$$>**>>>>**>>>$>**>>>>**>>>$>**>>>>**>>>>*;>>>>**>>>$**>>>$*=&%%%@@@@",
"+@@@@%%%&*$>>;=>>>>*=>>>>>;=>>>>*=>>>>>;=>>>>*=>>>>**>>>>$;>>>$$;>>>$*=&%%%@@@@",
"+@@@@@%%&*$;;;=>>>>;=>>>;;;=>>>>;=>>>;;;=>>>>;=>>>>;*>>>>*;>>>$*;>>>$;*&%%@@@@@",
"+@@@@@%%&$=====*============*============*=========;*****====;;====;;;*&%%@@@@@",
"+@@@@@%%&$$======*****$$======*****$$======*****$$$$$$$*==***===***===*&%%@@@@@",
"@@@@@%%%&***********$$***********$$***********$$***********************&%%%@@@@",
"@@@@%%%%&&&&&&&&&&&&&&&&&&&&&&&&&&&&&&&&&&&&&&&&&&&&&&&&&&&&&&&&&&&&&&&&%%%%@@@",
"@@@%%%%%%%%%%%%%%%%%%%@.%%%%%%%%%%%%%%%.%%%%%%%%%%%%%%%%%%%%%%%%%%%%%%%.%%%%%@@",
"@@@%%%%%%%%%%%%@@@@@@@@.%%%%%%%%%%%%%%%.%%%%%%%%%%@@@@@@@@@%%%%%%%%%@%%.%%%%%@@",
"@@@%%%@@%%@@@@@@@@@@@@@.%%@@@@@@@@@@@%%.%@@@@@@@@@@@@@@@@@@@@@@@@@@@@@%.@@%%%@@",
"+@@@@%@@@@@@@@@@@@@@@@+.%@@@@@@@@@@@@@@.@@@@@@@@@@@++++@@@@@@@@@@@@@@@+.@@%@@@@",
"++@@@@@@@@+++++++######.@@@@@@@@@@@@@@@.@++########$$$$++###########+++.@@@@@@+",
"$$++++++$$$$$$$$$$$$$$$.++#######++@@@@.$$$$$$$$$$$$$$$$$$$$$$$$$$$$$$$.++++++$",
"$$$$$$$.$$$$$$$$$$$$$$..$$$$$$$$$$$$$$$.$$$$$$$$$$$$$....$$$$$$$$$$$$$...$$$$$$",
"..$$$$$................ $$$$$$$$$$$$$$$..............    .............. .$$$$$."};
