/* XPM */
static char *_633699872075[] = {
/* columns rows colors chars-per-pixel */
"32 32 63 1 ",
"  c #010101",
". c #000B00",
"X c #0C000C",
"o c #001300",
"O c #001C00",
"+ c #140014",
"@ c #1C001C",
"# c #002400",
"$ c #002B00",
"% c #003400",
"& c #003900",
"* c #240024",
"= c #2B002B",
"- c #340034",
"; c #3E003E",
": c #004600",
"> c #004900",
", c #005400",
"< c #005C00",
"1 c #006300",
"2 c #006E00",
"3 c #007700",
"4 c #007D00",
"5 c #440044",
"6 c #4D004D",
"7 c #520052",
"8 c #5A005A",
"9 c #600060",
"0 c #6A006A",
"q c #740074",
"w c #7C007C",
"e c #008300",
"r c #008B00",
"t c #009300",
"y c #009C00",
"u c #00A300",
"i c #00AB00",
"p c #00B200",
"a c #00BD00",
"s c #00C400",
"d c #00CC00",
"f c #00D500",
"g c #00DC00",
"h c #00E500",
"j c #00ED00",
"k c #00F400",
"l c #00FE00",
"z c #820082",
"x c #8D008D",
"c c #950095",
"v c #9B009B",
"b c #A300A3",
"n c #AC00AC",
"m c #B300B3",
"M c #BD00BD",
"N c #C400C4",
"B c #CD00CD",
"V c #D400D4",
"C c #DB00DB",
"Z c #E300E3",
"A c #ED00ED",
"S c #F500F5",
"D c #FE00FE",
/* pixels */
"lllllldteeugllllDDDDDDDDDDDDDDDD",
"llllje$..oo,glllDDDSSSDDDDDDDDDD",
"lllj2.     OilllDCcqqcVDDDCmbBDD",
"lllr. .o#O .ylllAq@XX@7CSb5++5VD",
"lls# .:ti%  elllSc-=@++zz@X  *MD",
"lk1  &fkeo..tlllDANM0@+5+  +6bSD",
"ld$ .yla&. #slllDDDDn@@+  =bADDD",
"li. #yr%. oellllDDDDn+X  @vDDDDD",
"l<   o.  .<hllllDDDDxXX X6ZDDDDD",
"h%      #4hlllllDDDZ5 @  6CDDDDD",
"f%  .%,edkllllllDSN7XX;  +7vBDDD",
"liO  ,dhkkllllfy06*X 5m-XX+@6BDD",
"lkr.  $,24rr41%.  X+7CSb* X+=7ND",
"lljeo    ....   X-qnADDSb;+   ;V",
"llllp%..      O<xVDDANCDDCvq00ND",
"lllllgu43<1<3eskDDDZ7@8CDDDDDDDD",
"DDDDDDDVvMCSDDDDllle  osllllllll",
"DDDDDSc@X+qADDDDllj#  $kllllllll",
"DDDDDN*   +MDDDDlli   %hllllllll",
"DDDDDA7   -VDDDDll%   $flkfiidll",
"DDDDDDZq0zBDDDDDh4    #%%#o.o,fl",
"DDDDDDMvADDDDDDC:           .1gl",
"DDDDDb+XxDDDDDSw       .oO#>yfll",
"DDDDV@  5DDDDDDn.   O3ypdhllllll",
"DDDV-   0DDDDDZ-   oalllllllllll",
"DAv=    qDDDDS8    ,klllllllllll",
"Sx+  @X 7SDDDn     1llllllllllll",
"C6 X-z+ @zmnx+     Oilllllllllll",
"b=*8CB-  +++    #$  O4ipiut43tkl",
"n9cADSz+X      ;fu#   .o...  oyl",
"SVDDDDAw=@+X@*qAlkp:o      ..%dl",
"DDDDDDDSNmnnNCDDlllhi2<,<12eydll"
};
