/* XPM */
static char *_633699793094[] = {
/* columns rows colors chars-per-pixel */
"32 32 229 2 ",
"   c green",
".  c #10FB04",
"X  c #50ED17",
"o  c #84E327",
"O  c #A7DC31",
"+  c #B7D836",
"@  c #FE917D",
"#  c #FE8588",
"$  c #FE69A1",
"%  c #FE3FC5",
"&  c #FF0DF3",
"*  c magenta",
"=  c #3CF111",
"-  c #ACDB33",
";  c #F6CC49",
":  c #FFCB4C",
">  c #FEC450",
",  c #FE8985",
"<  c #FE30D3",
"1  c #1EF808",
"2  c #B1DA34",
"3  c #FDCA4B",
"4  c #FEC94C",
"5  c #FE8D80",
"6  c #FF18E7",
"7  c #4EEE16",
"8  c #EECD46",
"9  c #FECA4C",
"0  c #ECBB46",
"q  c #DCAE41",
"w  c #E0B142",
"e  c #F4C249",
"r  c #FEBD56",
"t  c #FE3EC7",
"y  c #64E91D",
"u  c #FBCB4A",
"i  c #AD8532",
"p  c #755420",
"a  c #65471B",
"s  c #67481B",
"d  c #856325",
"f  c #D7A93F",
"g  c #FEC84D",
"h  c #FE4FB7",
"j  c #53ED18",
"k  c #FCC94B",
"l  c #876426",
"z  c #96712B",
"x  c #C19738",
"c  c #D6A83F",
"v  c #D4A73E",
"b  c #BB9137",
"n  c #896627",
"m  c #B38A34",
"M  c #FE42C3",
"N  c #25F70A",
"B  c #F1CD47",
"V  c #FEC054",
"C  c #FE1EE3",
"Z  c #01FF00",
"A  c #C0D738",
"S  c #FDC94B",
"D  c #D9AA40",
"F  c #EFBD47",
"G  c #FBC84B",
"H  c #C89C3A",
"J  c #A37C2F",
"K  c #916D29",
"L  c #A37D2F",
"P  c #C99D3B",
"I  c #F8C54A",
"U  c #FF9877",
"Y  c #FF01FE",
"T  c #4DEE16",
"R  c #9D772D",
"E  c #6E4F1E",
"W  c #E8B745",
"Q  c #D0A33D",
"!  c #694A1C",
"~  c #795821",
"^  c #745420",
"/  c #72521F",
"(  c #E6B644",
")  c #FE3DC7",
"_  c #C1D639",
"`  c #F3C148",
"'  c #66481B",
"]  c #AE8632",
"[  c #E3B343",
"{  c #7F5D23",
"}  c #73531F",
"|  c #F1C048",
" . c #A88130",
".. c #EEBD47",
"X. c #FE9976",
"o. c #22F70A",
"O. c #FCCB4B",
"+. c #F2C048",
"@. c #DCAD41",
"#. c #C49839",
"$. c #FEC94D",
"%. c #FE1BE5",
"&. c #6BE81F",
"*. c #97722B",
"=. c #6B4C1D",
"-. c #E4B443",
";. c #DEAF42",
":. c #C69A3A",
">. c #FE54B3",
",. c #A2DD30",
"<. c #E9B845",
"1. c #8A6627",
"2. c #F6C349",
"3. c #FE808B",
"4. c #C6D63A",
"5. c #FAC74B",
"6. c #D8AA40",
"7. c #FE9D72",
"8. c #DBD140",
"9. c #FEAE63",
"0. c #DDD141",
"q. c #FEC648",
"w. c #FFCA4B",
"e. c #FEB062",
"r. c #FEA46D",
"t. c #FDC245",
"y. c #F19121",
"u. c #F39927",
"i. c #FDC547",
"p. c #CED33C",
"a. c #FE8A83",
"s. c #F19020",
"d. c #F6A42F",
"f. c #EAB945",
"g. c #946F2A",
"h. c #7E5D23",
"j. c #7B5A22",
"k. c #8B6727",
"l. c #AEDA33",
"z. c #FE63A6",
"x. c #F29524",
"c. c #F29322",
"v. c #9B762D",
"b. c #8B6827",
"n. c #9A752C",
"m. c #F9C64A",
"M. c #7BE524",
"N. c #FE2CD7",
"B. c #F29222",
"V. c #FEC547",
"C. c #F7C44A",
"Z. c #B98F36",
"A. c #755520",
"S. c #37F210",
"D. c #FF02FD",
"F. c #FEAE64",
"G. c #F9B33A",
"H. c #F19221",
"J. c #FEC84A",
"K. c #FFC94B",
"L. c #FCBE42",
"P. c #F9B038",
"I. c #F6A32E",
"U. c #F6A631",
"Y. c #DBD141",
"T. c #03FE01",
"R. c #FE59AF",
"E. c #FAB63C",
"W. c #F7A832",
"Q. c #FEC749",
"!. c #FBBA3F",
"~. c #F8AC35",
"^. c #F49E2B",
"/. c #FDC145",
"(. c #70E721",
"). c #FF08F7",
"_. c #FEB260",
"`. c #FBB83E",
"'. c #F5A32E",
"]. c #F39A28",
"[. c #F49B28",
"{. c #F8AE36",
"}. c #E0D042",
"|. c #0AFD02",
" X c #FE3CC8",
".X c #FEC649",
"XX c #F29423",
"oX c #F39826",
"OX c #F8AB34",
"+X c #4CEE16",
"@X c #FE6F9B",
"#X c #8CE129",
"$X c #FF03FD",
"%X c #F77165",
"&X c #FDC346",
"*X c #A5DC30",
"=X c #03FF01",
"-X c #F74394",
";X c #F5A02C",
":X c #FDCB4B",
">X c #92E02B",
",X c #04FD00",
"<X c #FA24C4",
"1X c #E8CF44",
"2X c #57EC19",
"3X c #FF01FB",
"4X c #F27A40",
"5X c #EBCE45",
"6X c #83E326",
"7X c #11FC05",
"8X c #FB23C6",
"9X c #F18C24",
"0X c #F3A830",
"qX c #ECCE46",
"wX c #CCD53C",
"eX c #97DF2C",
"rX c #08FC02",
"tX c #FA29BC",
"yX c #F18430",
"uX c #F18134",
"iX c #3AE407",
"pX c #FD09EE",
"aX c #F83E9C",
"sX c #F46166",
"dX c #F4695A",
"fX c #F65974",
"gX c #F83AA2",
"hX c #FB1BD2",
"jX c #FF02F9",
/* pixels */
"                      . X o O + @ # $ % & * * * * * * * * * * * ",
"                  = - ; : : : : : : : : > , < * * * * * * * * * ",
"              1 2 3 : : : : : : : : : : : : 4 5 6 * * * * * * * ",
"            7 8 : 9 0 q w e : : : : : : : : : : r t * * * * * * ",
"          y u 9 i p a a a s d f : : : : : : : : : g h * * * * * ",
"        j u : k l z x c v b n m : : : : : : : : : : g M * * * * ",
"      N B : : : : : : : : : : : : : : : : : : : : : : V C * * * ",
"    Z A : : : : : : S D F : : : : : G H J K K L P I : : U Y * * ",
"    T : : : : : : : R a E W : : : : Q a ! a ~ ^ a / ( : : ) * * ",
"    _ : : : : : : ` ' a a ] : : : : 9 [ { a } | w  ...: : X.* * ",
"  o.O.: : : : : : +.' a a i : : : : : @.a a a #.: : : : : $.%.* ",
"  &.: : : : : : : : *.a =.-.: : : : : ;.a a a :.: : : : : : >.* ",
"  ,.: : : : : : : : G Q <.: : : : : : 3 1.a ~ 2.: : : : : : 3.* ",
"  4.: : : : : : : : : : : : : : : : : : 5.6.2.: : : : : : : 7.* ",
"  8.: : : : : : : : : : : : : : : : : : : : : : : : : : : : 9.* ",
"  0.: : : : : : : q.w.: : : : : : : : : : : : : : : : : : : e.* ",
"* r.: : : : : : t.y.u.i.: : : : : : : : : : : : : : : : : : p.  ",
"* a.: : : : : : i.s.s.d.f.g.h.j.k.i [ : : : : : : : : : : : l.  ",
"* z.: : : : : : : x.s.c.-.d z v.b.=.' n.m.: : : : : : : : : M.  ",
"* N.: : : : : : w.B.s.s.V.: : : : C.Z.A.W : : : : : : : : : S.  ",
"* D.F.: : : : : G.s.s.H.J.: : : : K.L.P.I.U.w.: : : : : : Y.T.  ",
"* * R.: : : : E.y.s.s.W.: Q.!.~.^.B.s.s.s.s./.: : : : : : (.    ",
"* * )._.: : `.y.s.s.s.'.].y.s.s.s.s.s.y.[.{.: : : : : : }.|.    ",
"* * *  X4 .XXXs.s.s.s.s.s.s.s.s.oXOX!.Q.: : : : : : : 3 +X      ",
"* * * * @XG.s.s.s.s.s.s.s.s.s.s.c.V.: : : : : : : : : #X        ",
"* * * * $X%Xs.s.s.s.s.s.s.s.s.s.y.&X: : : : : : : : *X=X        ",
"* * * * * -Xs.s.s.s.s.s.s.s.s.s.;X: : : : : : : :X>X,X          ",
"* * * * * <Xs.s.s.s.s.s.s.s.s.s.s.Q.: : : : : 1X2X              ",
"* * * * * 3X4Xs.s.s.s.s.s.s.s.s.W.: : : : 5X6X7X                ",
"* * * * * * 8X9Xs.s.s.s.s.s.s.s.0XqXwXeXX rX                    ",
"* * * * * * * tXyXs.s.s.s.s.s.uXiXZ                             ",
"* * * * * * * * pXaXsXdXfXgXhXjX                                "
};
