/* XPM */
static char *_633699866476[] = {
/* columns rows colors chars-per-pixel */
"32 32 134 2 ",
"   c green",
".  c magenta",
"X  c #F60CE4",
"o  c #EC1BC6",
"O  c #F311DC",
"+  c #FB05F3",
"@  c #E624B5",
"#  c #BF613B",
"$  c #CF486D",
"%  c #E02DA2",
"&  c #BD6434",
"*  c #B0770D",
"=  c #AD7F00",
"-  c #E625B4",
";  c #12F000",
":  c #70AA00",
">  c #CD4B67",
",  c #1DE800",
"<  c #A08700",
"1  c #C5574E",
"2  c #0DF400",
"3  c #909300",
"4  c #BE6239",
"5  c #D04670",
"6  c #DF2F9E",
"7  c #DF309D",
"8  c #C35A48",
"9  c #C5584D",
"0  c #7F9F00",
"q  c #B86B26",
"w  c #F70AE9",
"e  c #AE7C05",
"r  c #C85356",
"t  c #60B600",
"y  c #A38400",
"u  c #EE17CE",
"i  c #D83A89",
"p  c #DC3396",
"a  c #1BE900",
"s  c #31D900",
"d  c #E821BB",
"f  c #F113D7",
"g  c #68B000",
"h  c #2ADE00",
"j  c #AA7F00",
"k  c #0EF300",
"l  c #4DC400",
"z  c #869A00",
"x  c #859B00",
"c  c #8A9700",
"v  c #A68300",
"b  c #A38500",
"n  c #B47317",
"m  c #B76E21",
"M  c #BA692B",
"N  c #BD6435",
"B  c #BD6237",
"V  c #DD319A",
"C  c #6BAE00",
"Z  c #F50CE5",
"A  c #67B100",
"S  c #AF790A",
"D  c #08F800",
"F  c #50C200",
"G  c #64B300",
"H  c #5BBA00",
"J  c #57BD00",
"K  c #D4407D",
"L  c #D53F7F",
"P  c #D63D82",
"I  c #D73C84",
"U  c #D73B86",
"Y  c #D73A88",
"T  c #F016D2",
"R  c #0CF400",
"E  c #74A900",
"W  c #E427AE",
"Q  c #DF2F9F",
"!  c #DD3398",
"~  c #C05F3F",
"^  c #CD4B66",
"/  c #DA378E",
"(  c #DE319B",
")  c #E02EA1",
"_  c #E12BA6",
"`  c #38D400",
"'  c #35D600",
"]  c #D24377",
"[  c #958F00",
"{  c #BF613A",
"}  c #1FE700",
"|  c #D83B87",
" . c #B27611",
".. c #B37415",
"X. c #AC7C03",
"o. c #AF780B",
"O. c #B1770F",
"+. c #B27512",
"@. c #A28500",
"#. c #5EB800",
"$. c #C25C45",
"%. c #CF486C",
"&. c #F40FDE",
"*. c #DC3494",
"=. c #D93A89",
"-. c #4BC500",
";. c #46C900",
":. c #06F900",
">. c #C75454",
",. c #23E300",
"<. c #8E9400",
"1. c #61B600",
"2. c #BC6533",
"3. c #3AD300",
"4. c #A88000",
"5. c #7CA100",
"6. c #D0476F",
"7. c #E22AA9",
"8. c #EF16D1",
"9. c #1EE800",
"0. c #78A400",
"q. c #2BDD00",
"w. c #C35B46",
"e. c #8F9300",
"r. c #2ADF00",
"t. c #B1760F",
"y. c #998C00",
"u. c #56BE00",
"i. c #F211DA",
"p. c #E12BA7",
"a. c #D14475",
"s. c #64B200",
"d. c #52C000",
"f. c #3BD200",
/* pixels */
"                                . . . . . . . . . . . . . . . . ",
"                                . . . X o O + @ # $ . . . . . . ",
"                                % & * = = = = = = = - . . . . . ",
"                            ; : = = = = = = = = = = > . . . . . ",
"                          , < = = = = = = = = = = = 1 . . . . . ",
"                        2 3 = = = = 4 5 6 7 8 = = = 9 . . . . . ",
"                        0 = = = q % . . . . w e = = r . . . . . ",
"                      t = = = y u . . . . . . i = = p . . . . . ",
"                    a = = = = s . . . . . . . . d f . . . . . . ",
"                    : = = = g   . . . . . . . . . . . . . . . . ",
"                  h = = = j     . . . . . . . . . . . . . . . . ",
"      k l z x x c v = = = = j b n m M N B B V . . . . . . . . . ",
"      C = = = = = = = = = = = = = = = = = = = Z . . . . . . . . ",
"      A = = = = = = = = = = = = = = = = = = S . . . . . . . . . ",
"      D F G G H = = = = J J J J K L P I U Y T . . . . . . . . . ",
"              R = = = E         . . . . . . . . . . . . . . . . ",
". . . . . . . W = = = Q . . . .                                 ",
". . . . u ! U ~ = = = ^ / ( ) _ ` '                             ",
". . . ] = = = = = = = = = = = = = = [                           ",
". . . { = = = = = = = = = = = = = = = }                         ",
". . . | q  ...X.= = = o.O.+.+.+.< @.#.                          ",
". . . . . . . $.= = = . . . . .                                 ",
". . . . . . . %.= = = &.. . . .                                 ",
". . . . . . . *.= = = =.. . . .             -.;.:.              ",
". . . . . . . d = = = >.. . . .         ,.<.= = 1.              ",
". . . . . . . . 2.= = = 6 . . .       3.4.= = = 5.              ",
". . . . . . . . W = = = = 6.7.8.9.` 0.= = = = = q.              ",
". . . . . . . . . w.= = = = = = = = = = = = = 3.                ",
". . . . . . . . . . %.= = = = = = = = = = e.r.                  ",
". . . . . . . . . . . % t.= = = = = = y.u.                      ",
". . . . . . . . . . . . . i.p.a.s.d.f.                          ",
". . . . . . . . . . . . . . . .                                 "
};
