/* XPM */
static char *_633699881657[] = {
/* columns rows colors chars-per-pixel */
"32 32 6 1 ",
"  c green",
". c black",
"X c magenta",
"o c #C0111E",
"O c white",
"+ c #FEFEFE",
/* pixels */
"        ...............XXXXXXXXX",
"       ..oooooooooooooo.XXXXXXXX",
"      ..oooooooooooooooo.XXXXXXX",
"     ..oooooooooooooooooo.XXXXXX",
"    ..oooooooooooooooooooo.XXXXX",
"   ..oooooooooooooooooooooo.XXXX",
"  ..oooooooooooooooooooooooo.XXX",
" ..oooooooooooooooooooooooooo.XX",
"..oooooooooooooooooooooooooooo.X",
".oooooooooooooooooooooooooooooo.",
".ooooooooOOOOOOOooooooooooooooo.",
".ooOOOOOoOOOOOOOooOOOoooOOOOOoo.",
".ooOOO+OoooOOooooOOOOOooOOOOOOo.",
".ooOOooooooOOoooOOoooOOoOOooOOo.",
".ooOOooooooOOoooOOoooOOoOOooOOo.",
".ooOOOOOOooOOoooOOoooOOoOOOOOOo.",
".ooOOOOOOooOOoooOOoooOOoOOOOOoo.",
".ooooooOOooOOoooOOoooOOoOOOOooo.",
".ooooooOOooOOoooOOoooOOoOOooooo.",
".oOOOOOOOooOOoooOOoooOOoOOooooo.",
".oOOOOOOOooOOoooOOOOOOooOOooooo.",
".ooooooooooooooooOOOOoooOOooooo.",
".oooooooooooooooooooooooooooooo.",
"..oooooooooooooooooooooooooooo. ",
"X..oooooooooooooooooooooooooo.  ",
"XX..oooooooooooooooooooooooo.   ",
"XXX..oooooooooooooooooooooo.    ",
"XXXX..oooooooooooooooooooo.     ",
"XXXXX..oooooooooooooooooo.      ",
"XXXXXX..oooooooooooooooo.       ",
"XXXXXXX..oooooooooooooo.        ",
"XXXXXXXX...............         "
};
